<?xml version="1.0" encoding="UTF-8"?>
<svg id="b" data-name="Layer 2" xmlns="http://www.w3.org/2000/svg" viewBox="0 0 186.1 186.1">
  <g id="c" data-name="Layer 1">
    <g>
      <rect width="186.1" height="186.1" rx="41.33" ry="41.33" fill="#6567f2" stroke-width="0"/>
      <path d="M118.97,53.49v-3.22c0-.65-.11-1.27-.3-1.83-.2-.58-.5-1.12-.88-1.56h0l-.04-.05c-.36-.42-.79-.77-1.26-1-.47-.23-.99-.36-1.53-.36h-27.36c-.54,0-1.06.13-1.53.36-.49.24-.93.6-1.3,1.05-.37.45-.67.98-.88,1.56-.19.56-.3,1.18-.3,1.83v3.22h35.38ZM94.44,82.86h13.69c.53,0,.96.51.96,1.15v10.26c0,.64-.43,1.15-.96,1.15h-13.69c-.53,0-.96-.52-.96-1.15v-10.26c0-.64.43-1.15.96-1.15h0ZM28.5,53.48h.54c2.42,0,4.41,2.38,4.41,5.29h0c0,2.91-1.99,5.29-4.41,5.29h-.54c-2.42,0-4.41-2.38-4.41-5.29h0c0-2.91,1.98-5.29,4.41-5.29h0ZM26.37,116.63h.96c2.42,0,4.41,2.38,4.41,5.29h0c0,2.91-1.99,5.29-4.41,5.29h-.96c-2.42,0-4.41-2.38-4.41-5.29h0c0-2.91,1.98-5.29,4.41-5.29h0ZM24.2,95.5h17.02c2.42,0,4.41-2.38,4.41-5.29h0c0-2.91-1.98-5.29-4.41-5.29h-18.13c-2.42,0-4.41-2.38-4.41-5.29h0c0-2.91,1.98-5.29,4.41-5.29h7.97c.14.01.27.02.41.02h13.72c2.37,0,4.31-2.33,4.31-5.17h0c0-2.84-1.94-5.17-4.31-5.17h-2.76c-2.42,0-4.41-2.38-4.41-5.29h0c0-2.91,1.98-5.29,4.41-5.29h21.4c.1,0,.2,0,.29.01h6.89v-5.8c0-2.16.36-4.24,1.02-6.13.68-1.97,1.68-3.74,2.92-5.22h0c1.24-1.48,2.72-2.68,4.35-3.5,1.58-.79,3.31-1.22,5.11-1.22h33.7c1.81,0,3.53.44,5.11,1.22,1.61.81,3.07,1.98,4.3,3.44l.06.06c1.24,1.48,2.23,3.25,2.92,5.22.66,1.89,1.02,3.97,1.02,6.13v5.8h9.83c.87,0,1.73.1,2.56.3.85.2,1.67.5,2.46.89.79.39,1.55.88,2.27,1.46.7.56,1.35,1.2,1.94,1.9l.06.06.05.07c.58.7,1.11,1.49,1.59,2.33.48.86.89,1.77,1.22,2.72.33.94.58,1.92.75,2.94.16.99.25,2.02.25,3.07v5.08h0c0,.48-.26.93-.66,1.09l-9.61,3.81c-.11.05-.22.07-.34.07-.53,0-.96-.52-.96-1.15v-8.9c0-.13,0-.25-.03-.35-.02-.12-.05-.24-.09-.35-.04-.12-.09-.23-.15-.33-.05-.09-.12-.19-.19-.28-.08-.09-.16-.17-.23-.23-.07-.06-.14-.1-.22-.15l-.06-.03c-.11-.05-.21-.09-.3-.12-.09-.02-.18-.03-.29-.03H61.19c-.11,0-.21.01-.29.03-.1.02-.2.06-.29.11-.1.05-.19.11-.28.18-.08.06-.15.14-.23.23-.15.18-.27.39-.35.61-.08.22-.12.46-.12.71v17.68c0,1.47.12,3.09,2.24,3.77l33.33,13.2c.58.23,1.1.43,1.57.59.49.17.96.32,1.43.46.46.13.9.24,1.34.31h0c.44.08.86.13,1.25.15.4.02.82.01,1.27-.03.44-.04.9-.11,1.39-.21.51-.11,1.02-.24,1.55-.41.53-.16,1.11-.38,1.77-.63l36.17-14.32.44-.17c.07-.05.14-.09.22-.12l9.56-3.81c.12-.06.25-.1.39-.1.53,0,.96.52.96,1.15v45.61c0,1.05-.09,2.07-.25,3.07-.17,1.02-.42,2-.75,2.94-.33.95-.74,1.86-1.22,2.72-.49.87-1.04,1.67-1.64,2.39h0c-.61.73-1.27,1.39-1.99,1.96-.71.57-1.47,1.06-2.27,1.46-.78.39-1.6.69-2.46.89-.83.2-1.68.3-2.56.3H39.67c-2.42,0-4.41-2.38-4.41-5.29h0c0-2.91,1.98-5.29,4.41-5.29h.49c.16.02.31.03.47.03h4.54c2.37,0,4.32-2.33,4.32-5.17h0c0-2.85-1.94-5.18-4.32-5.18h-5.77c-.87,0-1.69-.31-2.37-.84h0s-.09-.07-.09-.07h0s-.09-.07-.09-.07h0s-.08-.07-.08-.07h0s-.08-.08-.08-.08h0s-.08-.08-.08-.08h0s-.08-.08-.08-.08h0s-.08-.08-.08-.08h0s0,0,0,0c-.05-.05-.1-.11-.14-.17h0c-.05-.06-.1-.12-.14-.18h0s-.07-.1-.07-.1h0l-.07-.1h0l-.07-.1h0s-.06-.1-.06-.1c-.04-.07-.08-.14-.12-.21h0c-.06-.11-.12-.21-.17-.32h0c-.05-.11-.1-.22-.15-.34h0c-.11-.27-.2-.55-.27-.84h0c-.03-.13-.06-.25-.08-.38h0l-.02-.13h0s-.02-.13-.02-.13h0s-.02-.13-.02-.13h0s-.01-.13-.01-.13h0s0-.13,0-.13h0c0-.09,0-.18-.01-.27h0s0-.14,0-.14h0s0-.14,0-.14h0s0-.14,0-.14h0s0-.13,0-.13h0s0-.13,0-.13h0s.01-.13.01-.13h0s.02-.13.02-.13h0s.02-.13.02-.13h0s.02-.13.02-.13h0s.02-.13.02-.13h0s.03-.13.03-.13h0c.03-.13.06-.25.09-.37h0c.59-2.09,2.24-3.6,4.18-3.6h4.96s7.44,0,7.44,0h.13s3.27,0,3.27,0c2.41,0,4.38,2.34,4.41,5.22h0v10.5c0,.13,0,.24.03.35h0,0c.02.13.05.24.09.36.04.12.09.23.15.33.05.09.12.19.19.28.15.18.32.32.51.41.18.09.38.14.59.14h80.19c.11,0,.21-.01.29-.03.09-.02.19-.06.3-.12h0c.1-.04.19-.11.28-.17.08-.06.15-.14.23-.23.15-.18.27-.39.35-.61.08-.22.12-.45.12-.71v-27.96l-32.55,12.89c-.96.38-1.88.7-2.76.97-.87.26-1.71.47-2.55.63-.83.16-1.63.26-2.4.31-.78.05-1.55.06-2.32.02-.76-.04-1.49-.12-2.22-.23-.74-.12-1.46-.27-2.16-.45-.71-.19-1.43-.41-2.16-.65-.73-.25-1.47-.53-2.23-.83l-25.02-9.91c-2.36-.93-3.75-1.07-6.24-1.07h-3.17s-10.74,0-10.74,0h-.11s-22.11,0-22.11,0M24.2,106.07c-2.42,0-4.38-2.41-4.38-5.32h0c0-2.91,1.96-5.25,4.39-5.25" fill="#fff" stroke-width="0"/>
    </g>
  </g>
</svg>